# xmcd
#
# Track frame offsets:
# 150
# 14434
# 28457
# 40159
# 58334
# 78766
# 90717
#
# Disc length: 1365 seconds
#
#
# Revision: 0
# Processed by: cddbd v1.5.1PL0 Copyright (c) Steve Scherf et al.
# Submitted via: FreeRIP 2.931 
#
DISCID=55055307
DTITLE=Nicky Mack - Nicky Mack
DYEAR=2004
DGENRE=Piano
TTITLE0=Parking The Meters
TTITLE1=Julia
TTITLE2=The Wandering Song Chapter 2
TTITLE3=Pretty Mouth and Green my eyes
TTITLE4=The Alia Complex
TTITLE5=Circus Insane
TTITLE6=The Dawn of September
EXTD=
EXTT0=
EXTT1=
EXTT2=
EXTT3=
EXTT4=
EXTT5=
EXTT6=
PLAYORDER=
